<mxfile host="65bd71144e">
    <diagram name="PÃ¡gina-1" id="jpfWLPqKtA525M7urUYz">
        <mxGraphModel dx="1886" dy="2386" grid="1" gridSize="10" guides="1" tooltips="1" connect="1" arrows="1" fold="1" page="1" pageScale="1" pageWidth="827" pageHeight="1169" math="0" shadow="0">
            <root>
                <mxCell id="0"/>
                <mxCell id="1" parent="0"/>
                <mxCell id="NZvGtXNSFo7niaEzpbH--11" value="MedicamentosComprados" style="swimlane;whiteSpace=wrap;html=1;fillColor=#1ba1e2;fontColor=#ffffff;strokeColor=#006EAF;" parent="1" vertex="1">
                    <mxGeometry x="10" y="-180" width="200" height="200" as="geometry"/>
                </mxCell>
                <mxCell id="7" value="&lt;b&gt;Id_MedicamentoComprado&lt;/b&gt;&lt;br&gt;Id_Compras&lt;br&gt;Id_Proveedor&lt;br&gt;CantidadComprada&lt;br&gt;ValorUnitario" style="whiteSpace=wrap;html=1;" parent="NZvGtXNSFo7niaEzpbH--11" vertex="1">
                    <mxGeometry x="10" y="30" width="180" height="160" as="geometry"/>
                </mxCell>
                <mxCell id="NZvGtXNSFo7niaEzpbH--16" value="Compras" style="swimlane;whiteSpace=wrap;html=1;fillColor=#1ba1e2;fontColor=#ffffff;strokeColor=#006EAF;" parent="1" vertex="1">
                    <mxGeometry x="540" y="50" width="200" height="200" as="geometry"/>
                </mxCell>
                <mxCell id="9" value="&lt;b&gt;Id_Compras&lt;br&gt;&lt;/b&gt;FechaCompra&lt;br&gt;Id_Proveedor&lt;br&gt;Id_MedicamentosComprados&lt;br&gt;Cantidad&lt;br&gt;ValorTotal" style="whiteSpace=wrap;html=1;" parent="NZvGtXNSFo7niaEzpbH--16" vertex="1">
                    <mxGeometry x="10" y="30" width="180" height="160" as="geometry"/>
                </mxCell>
                <mxCell id="NZvGtXNSFo7niaEzpbH--17" value="FaturaVenta" style="swimlane;whiteSpace=wrap;html=1;startSize=23;fillColor=#1ba1e2;fontColor=#ffffff;strokeColor=#006EAF;" parent="1" vertex="1">
                    <mxGeometry x="800" y="-180" width="200" height="200" as="geometry">
                        <mxRectangle x="800" y="-180" width="110" height="30" as="alternateBounds"/>
                    </mxGeometry>
                </mxCell>
                <mxCell id="11" value="" style="whiteSpace=wrap;html=1;" parent="NZvGtXNSFo7niaEzpbH--17" vertex="1">
                    <mxGeometry x="10" y="30" width="180" height="160" as="geometry"/>
                </mxCell>
                <mxCell id="NZvGtXNSFo7niaEzpbH--18" value="MedicamentosVendidos" style="swimlane;whiteSpace=wrap;html=1;fillColor=#1ba1e2;fontColor=#ffffff;strokeColor=#006EAF;" parent="1" vertex="1">
                    <mxGeometry x="250" y="-180" width="200" height="200" as="geometry"/>
                </mxCell>
                <mxCell id="14" value="&lt;b&gt;Id_MedicamentoVendido&lt;/b&gt;&lt;br&gt;Id_Venta&lt;br&gt;Id_Medicamento&lt;br&gt;CantidadVendida&lt;br&gt;precio" style="whiteSpace=wrap;html=1;" parent="NZvGtXNSFo7niaEzpbH--18" vertex="1">
                    <mxGeometry x="10" y="30" width="180" height="160" as="geometry"/>
                </mxCell>
                <mxCell id="NZvGtXNSFo7niaEzpbH--19" value="Proveedores" style="swimlane;whiteSpace=wrap;html=1;fillColor=#60a917;fontColor=#ffffff;strokeColor=#2D7600;" parent="1" vertex="1">
                    <mxGeometry x="540" y="-480" width="200" height="200" as="geometry"/>
                </mxCell>
                <mxCell id="18" value="&lt;b&gt;Id_Proveedores&lt;/b&gt;&lt;br&gt;Nombre&lt;br&gt;Contacto&lt;br&gt;Direccion" style="whiteSpace=wrap;html=1;" parent="NZvGtXNSFo7niaEzpbH--19" vertex="1">
                    <mxGeometry x="10" y="30" width="180" height="160" as="geometry"/>
                </mxCell>
                <mxCell id="NZvGtXNSFo7niaEzpbH--20" value="Farmacia" style="swimlane;whiteSpace=wrap;html=1;fillColor=#6a00ff;fontColor=#ffffff;strokeColor=#3700CC;" parent="1" vertex="1">
                    <mxGeometry x="1141" y="170" width="200" height="200" as="geometry"/>
                </mxCell>
                <mxCell id="3" value="" style="whiteSpace=wrap;html=1;" parent="NZvGtXNSFo7niaEzpbH--20" vertex="1">
                    <mxGeometry x="10" y="30" width="180" height="160" as="geometry"/>
                </mxCell>
                <mxCell id="NZvGtXNSFo7niaEzpbH--21" value="FacturaCompra" style="swimlane;whiteSpace=wrap;html=1;fillColor=#1ba1e2;fontColor=#ffffff;strokeColor=#006EAF;" parent="1" vertex="1">
                    <mxGeometry x="1050" y="-180" width="200" height="200" as="geometry">
                        <mxRectangle x="1050" y="-180" width="130" height="30" as="alternateBounds"/>
                    </mxGeometry>
                </mxCell>
                <mxCell id="10" value="" style="whiteSpace=wrap;html=1;" parent="NZvGtXNSFo7niaEzpbH--21" vertex="1">
                    <mxGeometry x="9" y="30" width="180" height="160" as="geometry"/>
                </mxCell>
                <mxCell id="NZvGtXNSFo7niaEzpbH--22" value="Personas" style="swimlane;whiteSpace=wrap;html=1;fillColor=#60a917;fontColor=#ffffff;strokeColor=#2D7600;" parent="1" vertex="1">
                    <mxGeometry x="540" y="-768" width="200" height="200" as="geometry"/>
                </mxCell>
                <mxCell id="16" value="" style="whiteSpace=wrap;html=1;" parent="NZvGtXNSFo7niaEzpbH--22" vertex="1">
                    <mxGeometry x="10" y="31" width="180" height="160" as="geometry"/>
                </mxCell>
                <mxCell id="NZvGtXNSFo7niaEzpbH--23" value="Inventario" style="swimlane;whiteSpace=wrap;html=1;startSize=23;fillColor=#1ba1e2;fontColor=#ffffff;strokeColor=#006EAF;" parent="1" vertex="1">
                    <mxGeometry x="827" y="170" width="200" height="200" as="geometry"/>
                </mxCell>
                <mxCell id="6" value="" style="whiteSpace=wrap;html=1;" parent="NZvGtXNSFo7niaEzpbH--23" vertex="1">
                    <mxGeometry x="10" y="30" width="180" height="160" as="geometry"/>
                </mxCell>
                <mxCell id="NZvGtXNSFo7niaEzpbH--24" value="Empleados" style="swimlane;whiteSpace=wrap;html=1;fillColor=#60a917;fontColor=#ffffff;strokeColor=#2D7600;" parent="1" vertex="1">
                    <mxGeometry x="250" y="-480" width="200" height="200" as="geometry"/>
                </mxCell>
                <mxCell id="12" value="&lt;b&gt;Id_Empleado&lt;/b&gt;&lt;br&gt;Nombre&lt;br&gt;Cargo&lt;br&gt;FechaContratacion" style="whiteSpace=wrap;html=1;" parent="NZvGtXNSFo7niaEzpbH--24" vertex="1">
                    <mxGeometry x="10" y="30" width="180" height="160" as="geometry"/>
                </mxCell>
                <mxCell id="NZvGtXNSFo7niaEzpbH--25" value="FormulaMedica" style="swimlane;whiteSpace=wrap;html=1;fillColor=#60a917;fontColor=#ffffff;strokeColor=#2D7600;" parent="1" vertex="1">
                    <mxGeometry x="920" y="-920" width="200" height="200" as="geometry"/>
                </mxCell>
                <mxCell id="13" value="" style="whiteSpace=wrap;html=1;" parent="NZvGtXNSFo7niaEzpbH--25" vertex="1">
                    <mxGeometry x="11" y="30" width="180" height="160" as="geometry"/>
                </mxCell>
                <mxCell id="NZvGtXNSFo7niaEzpbH--26" value="Pacientes" style="swimlane;whiteSpace=wrap;html=1;fillColor=#60a917;fontColor=#ffffff;strokeColor=#2D7600;" parent="1" vertex="1">
                    <mxGeometry x="840" y="-480" width="200" height="200" as="geometry"/>
                </mxCell>
                <mxCell id="17" value="&lt;b&gt;Id_Paciente&lt;/b&gt;&lt;br&gt;Nombre&lt;br&gt;Direccion&lt;br&gt;Telefono" style="whiteSpace=wrap;html=1;" parent="NZvGtXNSFo7niaEzpbH--26" vertex="1">
                    <mxGeometry x="11" y="30" width="180" height="160" as="geometry"/>
                </mxCell>
                <mxCell id="NZvGtXNSFo7niaEzpbH--27" value="Ventas" style="swimlane;whiteSpace=wrap;html=1;fillColor=#1ba1e2;fontColor=#ffffff;strokeColor=#006EAF;" parent="1" vertex="1">
                    <mxGeometry x="540" y="330" width="200" height="200" as="geometry"/>
                </mxCell>
                <mxCell id="8" value="&lt;b&gt;Id_Venta&lt;br&gt;&lt;/b&gt;FechaVenta&lt;br&gt;PacienteId&lt;br&gt;EmpleadoId&lt;br&gt;MedicamentossVendidosId" style="whiteSpace=wrap;html=1;" parent="NZvGtXNSFo7niaEzpbH--27" vertex="1">
                    <mxGeometry x="10" y="30" width="180" height="160" as="geometry"/>
                </mxCell>
                <mxCell id="NZvGtXNSFo7niaEzpbH--28" value="Medicamentos" style="swimlane;whiteSpace=wrap;html=1;fillColor=#e3c800;fontColor=#000000;strokeColor=#B09500;" parent="1" vertex="1">
                    <mxGeometry x="1453" y="170" width="200" height="200" as="geometry"/>
                </mxCell>
                <mxCell id="4" value="" style="whiteSpace=wrap;html=1;" parent="NZvGtXNSFo7niaEzpbH--28" vertex="1">
                    <mxGeometry x="10" y="30" width="180" height="160" as="geometry"/>
                </mxCell>
                <mxCell id="20" value="Rol" style="swimlane;whiteSpace=wrap;html=1;fillColor=#647687;fontColor=#ffffff;strokeColor=#314354;" vertex="1" parent="1">
                    <mxGeometry x="110" y="240" width="200" height="200" as="geometry"/>
                </mxCell>
                <mxCell id="21" value="&lt;b&gt;Id_Rol&lt;/b&gt;&lt;br&gt;Nombre" style="whiteSpace=wrap;html=1;" vertex="1" parent="20">
                    <mxGeometry x="10" y="30" width="180" height="160" as="geometry"/>
                </mxCell>
                <mxCell id="22" value="Login" style="swimlane;whiteSpace=wrap;html=1;fillColor=#647687;fontColor=#ffffff;strokeColor=#314354;" vertex="1" parent="1">
                    <mxGeometry x="110" y="510" width="200" height="200" as="geometry"/>
                </mxCell>
                <mxCell id="23" value="&lt;b&gt;Id_User&lt;/b&gt;&lt;br&gt;UserName&lt;br&gt;Email&lt;br&gt;Password" style="whiteSpace=wrap;html=1;" vertex="1" parent="22">
                    <mxGeometry x="10" y="30" width="180" height="160" as="geometry"/>
                </mxCell>
                <mxCell id="24" value="UsuarioRol" style="swimlane;whiteSpace=wrap;html=1;fillColor=#647687;fontColor=#ffffff;strokeColor=#314354;" vertex="1" parent="1">
                    <mxGeometry x="414" y="630" width="200" height="200" as="geometry"/>
                </mxCell>
                <mxCell id="25" value="&lt;b&gt;Id_UsuarioRol&lt;/b&gt;&lt;br&gt;Id_User&lt;br&gt;Id_Rol" style="whiteSpace=wrap;html=1;" vertex="1" parent="24">
                    <mxGeometry x="10" y="30" width="180" height="160" as="geometry"/>
                </mxCell>
            </root>
        </mxGraphModel>
    </diagram>
</mxfile>